# xmcd
#
# Track frame offsets:
#  150
#  14355
#  30538
#  43732
#  55909
#  68448
#  77743
#  91709
#  106915
#  115201
#  126169
#  137300
#  149986
#  164465
#
# Disc length: 2331 seconds
#
# Revision: 0
# Processed by: cddbd v1.5.1PL2 Copyright (c) Steve Scherf et al.
# Submitted via: Collectorz.com_Music_Collector 6.9
#
DISCID=b709190e
DTITLE=Crystal Gayle - All My Tomorrows
DYEAR=2003
DGENRE=Country
TTITLE0=01 - You Belong To Me
TTITLE1=02 - Cry Me A River
TTITLE2=03 - You Made Me Love You
TTITLE3=04 - Falling In Love Again
TTITLE4=05 - All My Tomorrows
TTITLE5=06 - Goody, Goody
TTITLE6=07 - What'll I Do
TTITLE7=08 - Sentimental Journey
TTITLE8=09 - I'm Beginning To See The Light
TTITLE9=10 - It Had To Be You
TTITLE10=11 - More Than You Know
TTITLE11=12 - Smile
TTITLE12=13 - Hallelujah I Love Him So
TTITLE13=14 - For All We Know
EXTD=
EXTT0=
EXTT1=
EXTT2=
EXTT3=
EXTT4=
EXTT5=
EXTT6=
EXTT7=
EXTT8=
EXTT9=
EXTT10=
EXTT11=
EXTT12=
EXTT13=
PLAYORDER=
